<?xml version="1.0" encoding="UTF-8"?>
<svg id="Kóche" xmlns="http://www.w3.org/2000/svg" viewBox="0 0 632.28 316.14">
  <defs>
    <style>
      .cls-1 {
        fill: #1a0b3a;
      }
    </style>
  </defs>
  <path class="cls-1" d="M419.7,145.81l-18.63,9.32c-2.43,1.21-2.43,4.68,0,5.89l18.63,9.32c1.12,.56,1.82,1.7,1.82,2.95v34.19c0,1.82-1.47,3.29-3.29,3.29h-22.27c-.51,0-1.02-.12-1.47-.35l-23.83-11.92c-1.12-.56-1.82-1.7-1.82-2.95v-21.01c0-1.82-1.47-3.29-3.29-3.29h-98.79c-1.82,0-3.29,1.47-3.29,3.29v21.01c0,1.25-.7,2.39-1.82,2.95l-23.83,11.92c-.46,.23-.96,.35-1.47,.35h-22.27c-1.82,0-3.29-1.47-3.29-3.29V120.59c0-1.25,.7-2.39,1.82-2.95l23.83-11.92c.46-.23,.96-.35,1.47-.35h22.27c1.82,0,3.29,1.47,3.29,3.29v44.07c0,2.45,2.58,4.04,4.77,2.95l20.89-10.44c.46-.23,.96-.35,1.47-.35h74.96c1.82,0,3.29-1.47,3.29-3.29v-21.01c0-1.25,.7-2.39,1.82-2.95l23.83-11.92c.46-.23,.96-.35,1.47-.35h22.27c1.82,0,3.29,1.47,3.29,3.29v34.19c0,1.25-.7,2.39-1.82,2.95Z"/>
</svg>