<?xml version="1.0" encoding="UTF-8"?>
<svg id="Kóche" xmlns="http://www.w3.org/2000/svg" viewBox="0 0 1580.71 316.14">
  <defs>
    <style>
      .cls-1 {
        fill: #c6c6c6;
      }
    </style>
  </defs>
  <path class="cls-1" d="M1129.55,105.38h-22.27c-.51,0-1.02,.12-1.47,.35l-23.83,11.92c-1.12,.56-1.82,1.7-1.82,2.95v24.31h0s-78.26,0-78.26,0c-.51,0-1.02,.12-1.47,.35l-20.88,10.44c-2.19,1.09-4.77-.5-4.77-2.95v-44.07c0-1.82-1.47-3.29-3.29-3.29h-22.27c-.51,0-1.02,.12-1.47,.35l-23.83,11.92c-1.12,.56-1.82,1.7-1.82,2.95v86.88c0,1.82,1.47,3.29,3.29,3.29h22.27c.51,0,1.02-.12,1.47-.35l23.83-11.92c1.12-.56,1.82-1.7,1.82-2.95v-21.01c0-1.82,1.47-3.29,3.29-3.29h74.97c.51,0,1.02-.12,1.47-.35l20.88-10.44c2.19-1.09,4.77,.5,4.77,2.95v44.07c0,1.82,1.47,3.29,3.29,3.29h22.27c.51,0,1.02-.12,1.47-.35l23.83-11.92c1.12-.56,1.82-1.7,1.82-2.95V108.68c0-1.82-1.47-3.29-3.29-3.29Z"/>
  <path class="cls-1" d="M474.21,88.92c0,1.82,1.47,3.29,3.29,3.29h75.74s51.91,0,51.91,0c.51,0,1.02-.12,1.47-.35l23.83-11.92c1.12-.56,1.82-1.7,1.82-2.95v-7.84c0-1.82-1.47-3.29-3.29-3.29h-75.74s-51.91,0-51.91,0c-.51,0-1.02,.12-1.47,.35l-23.83,11.92c-1.12,.56-1.82,1.7-1.82,2.95v7.84Z"/>
  <path class="cls-1" d="M631.51,105.38h-156.52c-.51,0-1.02,.12-1.47,.35l-23.83,11.92c-1.12,.56-1.82,1.7-1.82,2.95v74.96c0,1.25,.7,2.39,1.82,2.95l23.83,11.92c.46,.23,.96,.35,1.47,.35h156.52c.51,0,1.02-.12,1.47-.35l23.83-11.92c1.12-.56,1.82-1.7,1.82-2.95V120.59c0-1.25-.7-2.39-1.82-2.95l-23.83-11.92c-.46-.23-.96-.35-1.47-.35Zm-28.86,79.03h-74.97c-.51,0-1.02,.12-1.47,.35l-20.88,10.44c-2.19,1.09-4.77-.5-4.77-2.95v-57.24c0-1.82,1.47-3.29,3.29-3.29h98.79c1.82,0,3.29,1.47,3.29,3.29v46.1c0,1.82-1.47,3.29-3.29,3.29Z"/>
  <path class="cls-1" d="M419.7,145.81l-18.63,9.32c-2.43,1.21-2.43,4.68,0,5.89l18.63,9.32c1.12,.56,1.82,1.7,1.82,2.95v34.19c0,1.82-1.47,3.29-3.29,3.29h-22.27c-.51,0-1.02-.12-1.47-.35l-23.83-11.92c-1.12-.56-1.82-1.7-1.82-2.95v-21.01c0-1.82-1.47-3.29-3.29-3.29h-98.79c-1.82,0-3.29,1.47-3.29,3.29v21.01c0,1.25-.7,2.39-1.82,2.95l-23.83,11.92c-.46,.23-.96,.35-1.47,.35h-22.27c-1.82,0-3.29-1.47-3.29-3.29V120.59c0-1.25,.7-2.39,1.82-2.95l23.83-11.92c.46-.23,.96-.35,1.47-.35h22.27c1.82,0,3.29,1.47,3.29,3.29v44.07c0,2.45,2.58,4.04,4.77,2.95l20.89-10.44c.46-.23,.96-.35,1.47-.35h74.96c1.82,0,3.29-1.47,3.29-3.29v-21.01c0-1.25,.7-2.39,1.82-2.95l23.83-11.92c.46-.23,.96-.35,1.47-.35h22.27c1.82,0,3.29,1.47,3.29,3.29v34.19c0,1.25-.7,2.39-1.82,2.95Z"/>
  <path class="cls-1" d="M895.74,128.43v-7.84c0-1.25-.7-2.39-1.82-2.95l-23.83-11.92c-.46-.23-.96-.35-1.47-.35h-127.66c-1.82,0-3.29,1.47-3.29,3.29v4.55c0,2.45-2.58,4.04-4.77,2.95l-20.88-10.44c-.46-.23-.96-.35-1.47-.35h-22.27c-1.82,0-3.29,1.48-3.29,3.29v86.88c0,1.25,.7,2.39,1.82,2.95l23.83,11.92c.46,.23,.96,.35,1.47,.35h156.52c.51,0,1.02-.12,1.47-.35l23.83-11.92c1.12-.56,1.82-1.7,1.82-2.95v-7.84c0-1.82-1.47-3.29-3.29-3.29h-127.66c-.51,0-1.02,.12-1.47,.35l-20.88,10.44c-2.19,1.09-4.77-.5-4.77-2.95v-57.24c0-1.82,1.47-3.29,3.29-3.29h151.49c1.82,0,3.29-1.47,3.29-3.29Z"/>
  <path class="cls-1" d="M1369.95,128.43v-7.84c0-1.25-.7-2.39-1.82-2.95l-23.83-11.92c-.46-.23-.96-.35-1.47-.35h-127.66c-1.82,0-3.29,1.47-3.29,3.29v4.55c0,2.45-2.58,4.04-4.77,2.95l-20.88-10.44c-.46-.23-.96-.35-1.47-.35h-22.27c-1.82,0-3.29,1.48-3.29,3.29v86.88c0,1.25,.7,2.39,1.82,2.95l23.83,11.92c.46,.23,.96,.35,1.47,.35h156.52c.51,0,1.02-.12,1.47-.35l23.83-11.92c1.12-.56,1.82-1.7,1.82-2.95v-7.84c0-1.82-1.47-3.29-3.29-3.29h-151.49c-1.82,0-3.29-1.47-3.29-3.29v-6.58c0-1.82,1.47-3.29,3.29-3.29h74.96c.51,0,1.02-.12,1.47-.35l23.83-11.92c1.12-.56,1.82-1.7,1.82-2.95v-7.84c0-1.82-1.47-3.29-3.29-3.29h-74.97c-.51,0-1.02,.12-1.47,.35l-20.88,10.44c-2.19,1.09-4.77-.5-4.77-2.95v-17.72c0-1.82,1.47-3.29,3.29-3.29h151.49c1.82,0,3.29-1.47,3.29-3.29Z"/>
</svg>