<?xml version="1.0" encoding="UTF-8"?>
<svg id="Kóche" xmlns="http://www.w3.org/2000/svg" viewBox="0 0 948.43 316.14">
  <defs>
    <style>
      .cls-1 {
        fill: #ff0035;
      }

      .cls-2 {
        fill: #c6c6c6;
      }
    </style>
  </defs>
  <g>
    <path class="cls-1" d="M419.7,145.81l-18.63,9.32c-2.43,1.21-2.43,4.68,0,5.89l18.63,9.32c1.12,.56,1.82,1.7,1.82,2.95v34.19c0,1.82-1.47,3.29-3.29,3.29h-22.27c-.51,0-1.02-.12-1.47-.35l-23.83-11.92c-1.12-.56-1.82-1.7-1.82-2.95v-21.01c0-1.82-1.47-3.29-3.29-3.29h-98.79c-1.82,0-3.29,1.47-3.29,3.29v21.01c0,1.25-.7,2.39-1.82,2.95l-23.83,11.92c-.46,.23-.96,.35-1.47,.35h-22.27c-1.82,0-3.29-1.47-3.29-3.29V120.59c0-1.25,.7-2.39,1.82-2.95l23.83-11.92c.46-.23,.96-.35,1.47-.35h22.27c1.82,0,3.29,1.47,3.29,3.29v44.07c0,2.45,2.58,4.04,4.77,2.95l20.89-10.44c.46-.23,.96-.35,1.47-.35h74.96c1.82,0,3.29-1.47,3.29-3.29v-21.01c0-1.25,.7-2.39,1.82-2.95l23.83-11.92c.46-.23,.96-.35,1.47-.35h22.27c1.82,0,3.29,1.47,3.29,3.29v34.19c0,1.25-.7,2.39-1.82,2.95Z"/>
    <path class="cls-1" d="M472.5,107.1l-22.91,22.91c-1.1,1.1-1.72,2.59-1.72,4.15v70.74c0,3.24,2.63,5.87,5.87,5.87h255.15c1.56,0,3.05-.62,4.15-1.72l22.91-22.91c1.1-1.1,1.72-2.59,1.72-4.15V111.25c0-3.24-2.63-5.87-5.87-5.87h-255.15c-1.56,0-3.05,.62-4.15,1.72Z"/>
  </g>
  <g>
    <path class="cls-2" d="M485.96,162.92c0-3.58,2.45-6.28,8.52-6.28,2.66,0,4.81,.59,4.81,.59v-1.31c0-3.16-1.31-4.81-4.55-4.81-3.5,0-4.77,2.57-4.77,2.57h-2.74v-2.74s1.98-3.42,7.63-3.42,8.65,2.91,8.65,8.48v13.03h-3.37l-.51-3.04c-1.05,1.52-3.08,3.46-6.54,3.46-4.72,0-7.13-2.91-7.13-6.54Zm13.33-1.39v-1.1s-1.98-.59-4.81-.59c-3.42,0-4.39,1.52-4.39,3.08,0,2.15,1.27,3.12,3.67,3.12,3.46,0,5.53-2.53,5.53-4.51Z"/>
    <path class="cls-2" d="M509.31,160.55v-12.61h4.22v12.36c0,3.33,1.35,5.61,4.77,5.61,4.05,0,5.35-2.87,5.35-5.57v-12.4h4.22v21.09h-3.8l-.3-2.83c-1.05,1.43-3.08,3.25-6.45,3.25-5.82,0-8.01-4.01-8.01-8.9Z"/>
    <path class="cls-2" d="M535.28,161.94v-10.42h-3.42v-3.58h3.58l.25-5.27h3.8v5.27h8.27v3.58h-8.27v9.99c0,2.66,.89,4.35,3.46,4.35,2.7,0,2.91-1.98,2.91-1.98h2.74v2.74c-.68,1.1-2.19,2.83-5.69,2.83-5.06,0-7.63-2.61-7.63-7.51Z"/>
    <path class="cls-2" d="M551,158.44c0-6.03,3.96-10.92,10.71-10.92s10.71,4.89,10.71,10.92-4.01,11.01-10.71,11.01-10.71-4.98-10.71-11.01Zm17.21,0c0-4.01-2.07-7.34-6.5-7.34s-6.5,3.33-6.5,7.34,2.07,7.42,6.5,7.42,6.5-3.33,6.5-7.42Z"/>
    <path class="cls-2" d="M577.35,147.94h3.8l.3,2.7c.93-1.44,2.7-3.12,5.61-3.12,3.12,0,5.06,1.35,6.16,3.46,1.05-1.65,3.04-3.46,6.49-3.46,5.19,0,7.17,3.84,7.17,8.48v13.03h-4.22v-12.78c0-3.08-1.1-5.19-3.92-5.19-3.37,0-4.51,2.61-4.51,4.85v13.12h-4.22v-12.86c0-3.04-1.1-5.1-3.92-5.1-3.42,0-4.51,2.87-4.51,5.57v12.4h-4.22v-21.09Z"/>
    <path class="cls-2" d="M611.36,162.92c0-3.58,2.45-6.28,8.52-6.28,2.66,0,4.81,.59,4.81,.59v-1.31c0-3.16-1.31-4.81-4.55-4.81-3.5,0-4.77,2.57-4.77,2.57h-2.74v-2.74s1.98-3.42,7.63-3.42,8.65,2.91,8.65,8.48v13.03h-3.37l-.51-3.04c-1.05,1.52-3.08,3.46-6.54,3.46-4.72,0-7.13-2.91-7.13-6.54Zm13.33-1.39v-1.1s-1.98-.59-4.81-.59c-3.42,0-4.39,1.52-4.39,3.08,0,2.15,1.27,3.12,3.67,3.12,3.46,0,5.53-2.53,5.53-4.51Z"/>
    <path class="cls-2" d="M645.18,178.06h-2.95v-2.95c1.14,0,2.45-.17,2.45-1.48,0-1.22-1.31-1.52-2.28-1.52v-2.78c-5.86-.84-8.77-5.44-8.77-10.88,0-6.03,3.96-10.96,10.71-10.96s8.06,3.88,8.06,3.88v2.74h-2.74s-.84-3.04-5.32-3.04-6.5,3.33-6.5,7.38,2.07,7.42,6.5,7.42c4.68,0,5.36-3.04,5.36-3.04h2.74v2.74s-1.31,3.29-6.66,3.79v1.35c1.94,.42,2.7,1.86,2.7,3.37,0,3.33-3.29,3.96-3.29,3.96Z"/>
    <path class="cls-2" d="M655.88,162.92c0-3.58,2.45-6.28,8.52-6.28,2.66,0,4.81,.59,4.81,.59v-1.31c0-3.16-1.31-4.81-4.55-4.81-3.5,0-4.77,2.57-4.77,2.57h-2.74v-2.74s1.98-3.42,7.63-3.42,8.65,2.91,8.65,8.48v13.03h-3.37l-.51-3.04c-1.05,1.52-3.08,3.46-6.54,3.46-4.72,0-7.13-2.91-7.13-6.54Zm7.47-20.88c-.59,0-1.22,.25-1.43,1.1h-2.95c0-2.95,1.52-4.55,4.05-4.55,2.28,0,2.91,1.31,4.35,1.31,.59,0,1.27-.09,1.43-1.1h2.95c0,2.95-1.14,4.55-3.67,4.55-2.24,0-3.2-1.31-4.72-1.31Zm5.86,19.48v-1.1s-1.98-.59-4.81-.59c-3.42,0-4.39,1.52-4.39,3.08,0,2.15,1.27,3.12,3.67,3.12,3.46,0,5.53-2.53,5.53-4.51Z"/>
    <path class="cls-2" d="M678.13,158.44c0-6.03,3.96-10.92,10.71-10.92s10.71,4.89,10.71,10.92-4.01,11.01-10.71,11.01-10.71-4.98-10.71-11.01Zm17.21,0c0-4.01-2.07-7.34-6.5-7.34s-6.5,3.33-6.5,7.34,2.07,7.42,6.5,7.42,6.5-3.33,6.5-7.42Z"/>
  </g>
</svg>